<svg xmlns="http://www.w3.org/2000/svg" width="9487" height="9454" viewBox="0 0 9487 9454">
  <metadata><?xpacket begin="﻿" id="W5M0MpCehiHzreSzNTczkc9d"?>
<x:xmpmeta xmlns:x="adobe:ns:meta/" x:xmptk="Adobe XMP Core 5.6-c142 79.160924, 2017/07/13-01:06:39        ">
   <rdf:RDF xmlns:rdf="http://www.w3.org/1999/02/22-rdf-syntax-ns#">
      <rdf:Description rdf:about=""/>
   </rdf:RDF>
</x:xmpmeta>
                                                                                                    
                                                                                                    
                                                                                                    
                                                                                                    
                                                                                                    
                                                                                                    
                                                                                                    
                                                                                                    
                                                                                                    
                                                                                                    
                                                                                                    
                                                                                                    
                                                                                                    
                                                                                                    
                                                                                                    
                                                                                                    
                                                                                                    
                                                                                                    
                                                                                                    
                                                                                                    
                           
<?xpacket end="w"?></metadata>
<defs>
    <style>
      .cls-1 {
        fill-rule: evenodd;
      }
    </style>
  </defs>
  <path id="Forma_1" data-name="Forma 1" class="cls-1" d="M0,9454q291.471-697.425,583-1395,652.44-1565.85,1305-3132,412.455-987.405,825-1975,0.495-456.96,1-914c0.67-.33,1.33-0.67,2-1q138.48-.495,277-1c25.04,0,84.41,6.31,103-2Q3520.455,1017.1,3945,0h6c6.97,9.958,30.88,12.256,43,17q62.49,25,125,50c137,54.695,269.21,118.924,402,179,142.26,64.362,283.09,138.1,418,212q90.495,48,181,96,346.53,195.264,675,409c534.68,348.97,1041.75,760.87,1470,1217,123.13,131.15,240.51,267.12,356,406q76.485,92.985,153,186Q7893,2927.985,8012,3084c64.1,82.44,119.12,170.65,180,256,114.15,160.03,221.55,325.7,329,493,77.93,121.33,156.46,243.41,229,370,86.7,151.3,179.96,301.63,266,455,90.89,162.03,172.84,327.56,263,492,50.29,91.71,93.28,187.54,142,282,17.44,33.82,33.09,68.63,50,104,4.92,10.29,14.27,21.41,16,34-18.16,2.75-35.53,14.3-51,21-44.26,19.17-89.27,34.34-132,54-123.4,56.77-253.35,98.22-376,154q-115.995,46.5-232,93-428.46,176.475-857,353-303.975,123.495-608,247c-562,242.79-1139.84,456.6-1702,699-136.76,58.97-274.15,111.16-412,167-73.65,29.83-142.49,73.91-218,104q-135.99,53.49-272,107c-4.32,58.08-23.59,75.52-80,85q-1.005,13.995-2,28-100.995.495-202,1-57,24.99-114,50-109.995,43.5-220,87c-51.24,21.43-104.94,33.62-155,55-314.1,134.12-636.98,254.55-950,391q-242.97,98.49-486,197c-52.16,24.05-106.83,43.65-161,66-13.86,5.72-28.37,19.98-41,24q-4.995-1.5-10-3l-269,112c-124.71,54.37-252.47,100.15-376,154q-242.97,98.49-486,197Q537.555,9233.485,0,9454ZM3992,108c-24.98,38.53-41.02,95.725-59,140q-43.5,101.99-87,204-25.5,63.494-51,127c-20.7,45.105-37.78,92.375-58,139-10.32,23.8-29.76,52.4-33,80q27.99,15.5,56,31c45.88,26.112,93.25,57.91,131,93,46.56,43.281,76.58,106.11,126,146,29.41,23.75,58.08,49.83,92,69,47.39,26.78,100.28,43.81,157,62,41.21,13.22,88.33,14.87,134,22l64,3q43.995,0.495,88,1c84.71-12.78,185.99-4.48,248,21,65.38,26.87,110.09,83.66,137,149,37.79,91.75,57.73,192.13,149,230,30.26,12.56,65,18.97,102,25,48.51,7.91,95.5,2.52,140,13,102.89,24.23,196.91,49.25,277,96,91.67,53.5,172.33,113.86,244,187q33.495,39,67,78,12.495,16.995,25,34,48.99,6.495,98,13c80.11,15.84,159.58,29.04,235,50,201.29,55.95,384.06,136.41,533,246,238.42,175.43,404.05,407.1,517,709,42.81,114.41,64.11,241.6,88,375q6,52.995,12,106c2.48,15.11-3.31,43.73,7,51q48,16.995,96,34c70.18,27.48,138.38,68.87,168,137,14.22,32.71,25.3,115.3,17,168-4.04,25.65-4.17,65.02,1,90,16.35,78.96,41.7,142.46,87,192,67.06,73.35,142.64,135.87,228,191,58.46,37.75,131.39,66.91,159,135,29.75,73.37-6.95,165.9-21,236-3.86,19.25-9.99,48.5-6,73,4.2,25.85,4.39,50.14,11,73,21.13,73.08,59.9,131.49,100,186,39.32,53.45,88.8,98.27,136,144a1806.4,1806.4,0,0,0,202,169c96.25,69.04,217.88,151.49,217,313q94.485-39,189-78c68.44-27.33,136.79-53.34,203-83q55.995-22.995,112-46c13.51-5.39,34.4-8.53,43-19-32.55-72.44-69.53-143.71-106-213-92.01-174.81-180.92-348.76-275-519-85.57-154.84-169.01-310.09-262-458-46.15-73.41-86.43-149.87-134-221-19-28.41-32.52-58.53-51-87l-104-165c-112.64-184.19-239.94-360.34-362-536-62.14-89.42-128.9-174.83-191-263q-54.99-73.995-110-148c-101.45-122.41-198.47-248.21-300-370-100.81-120.93-212.01-232.39-316-350q-72.495-72-145-144c-54.58-53.48-108.36-107.54-166-158q-34.995-33-70-66-60.99-52.5-122-105c-124.23-113.78-259.37-217.99-395-320-194.07-145.96-391.44-290.47-601-421-105.28-65.578-211.71-133.044-318-199L4993,580c-154.06-90.158-318.91-159.768-480-243-111.59-57.659-228.99-108.917-348-158-39.39-16.245-79-33.5-120-50C4028.73,122.449,4011.16,110.793,3992,108ZM3671,878c-16.53,19.154-27.63,63.478-38,89q-37.995,90.99-76,182-133.98,320.97-268,642h2q53.49,7.005,107,14c81.71,19.29,162.95,29.04,238,54,93.8,31.19,184.17,62.79,268,104q67.5,36.495,135,73H5473q110.985,1.005,222,2,63.99,3.495,128,7v-1l-2-2c-14.1-28.91-67.46-70.3-92-93-103.3-95.55-228.47-156.29-387-198-52.12-13.71-108.82-7.65-167-18-42.05-7.48-81.94-14.86-117-29-80.08-32.29-128.23-98.12-162-177-28.04-65.48-41.54-146.31-96-185-72.24-51.33-197.46-34.02-315-34-107.7.01-206.75-13.31-289-42-105.15-36.68-200.88-90.03-266-167q-38.49-48.495-77-97c-28.67-35.5-74.42-61.38-114-86C3719.33,903.762,3695.89,883.046,3671,878ZM3188,2036q333.96-.495,668-1-26.49-13.005-53-26-58.5-22.995-117-46c-72.1-26.05-148.73-41.13-227-62q-69-10.995-138-22c-12.36-2.08-50.86-.84-57-7-1.41-3.89-.83-11.08-3-14q-12,28.995-24,58c-10.32,25.9-21.93,52.09-33,79C3198.87,2007.47,3188.93,2019.99,3188,2036Zm1458,322q-50.49,15-101,30c-88.94,48.05-160.35,129.76-187,240-46.37,191.83,92.1,363.28,228,401,36.41,10.11,69.65,20.99,120,21h32c107.6-24.4,192.81-64.19,242-147,12.18-20.5,32.84-43.3,41-67,7.7-22.36,13.84-47.98,20-70v-48c0-60.4-3.92-103.41-20-146q-4.5-5.505-9-11c-37.83-107.37-138.19-179.19-259-203H4646Zm-1070,34c-18.37,13.07-59.93,9.68-81,21-21.33,11.46-43.23,23.43-66,33-29.94,12.58-112.63,108.95-125,142-11.71,31.29-20.14,64.82-29,97v105q4.005,10.005,8,20v20a361.308,361.308,0,0,0,13,41c2.5,6.57,11.38,16.84,15,23q1.005,5.505,2,11c13.87,25.49,35.36,47.02,51,72,9.49,15.15,71.2,57.55,89,68q5.505,1.005,11,2c43.73,25.54,93.58,35.99,165,36h44c33.95-8.69,65.98-17.23,97-29l33-24c58.79-34.56,95.9-80.44,127-143,3.79-7.63,13.29-18.1,16-26,8.96-26.08,15.57-64.53,21-92,8.94-45.19-8.07-97.9-17-129-41.03-142.87-137.77-210.89-285-248h-89Zm2212,66c-28.5,14.21-65.21,15.1-93,30-76.69,41.11-146.28,117.26-174,207-17.71,57.35-17.82,152.65,0,210,16.77,53.96,68.14,135.81,110,164q12.495,7.5,25,15c14.35,13.6,38.27,30.03,58,37q36.99,10.5,74,21h35c30.49,7.62,30.22,8.66,61,0h35c112.41-22.67,191.37-92.68,242-178,9.91-16.71,11.11-34.67,19-54,10.87-26.63,28.64-94.99,20-138-7.78-38.73-16.89-80.97-29-116-6.12-17.71-22.51-36.43-33-51-9.96-13.83-18.16-26.85-28-41-28.89-41.56-130.45-93.3-190-106H5788Zm806,567c-13.85,8.45-27.81,3.57-48,8-21.84,4.79-43.83,13.34-66,21-63.5,21.94-124.14,86.8-158,140-5.79,9.1-5.49,18.56-11,28-4.12,7.07-13.38,18.37-16,26-68.01,197.97,39.14,386.42,182,439l12,9c42.61,15.06,82.15,20.99,142,21h47c39.38-8.61,75.29-23.84,109-38q22.5-16.005,45-32,14.505-6,29-12c11.37-7.87,12.3-22.03,20-34,17.71-27.54,45.24-51.68,59-83q3-15.495,6-31c11.56-37.79,20-73.93,20-127v-34c-6.69-23.93-11.87-54.51-20-78l-9-12C6891,3109.95,6767.54,3024.78,6594,3025ZM2710,3176q-82.485,198.975-165,398-20.505,48.99-41,98c-3.19,8.08-15.67,25.02-11,33q109.995-89.985,220-180,0.495-94.485,1-189V3220c0-12.96,3.07-36.21-3-44h-1Zm1837,141q-0.495,382.965-1,766v185c0,14.06-3.56,60.07,2,68h1q27-45.495,54-91c34.34-58.25,62.46-124.96,88-190,34.29-87.34,56.21-181.49,79-281,11.3-49.36,10.01-101.5,20-153q1.005-25.5,2-51c8-49.81,7.1-132.96-1-182-2.63-15.92.75-61.77-7-70Q4665.515,3317.505,4547,3317Zm324,0q4.005,75.99,8,152-1.5,48.99-3,98c-8.72,56.7-3.81,110.13-14,163-27.77,144.13-58.51,272.92-108,393-24.69,59.9-53.88,118.37-84,174q-21.495,36-43,72c1,0.67,2,1.33,3,2q54,0.495,108,1,75.99-.495,152-1c39.56-.01,81.27,1.67,116-4q19.005-.495,38-1c52.98-9.03,108.15-8.04,158-21q56.49-14.505,113-29c139.92-56.88,222.7-113.26,289-244,18.23-35.95,30.35-77.23,41-122q2.505-27,5-54c3.17-19.94,6.99-51.15,3-75-6.69-40-6.41-79.88-16-116C5548.34,3371.06,5289.05,3316.9,4871,3317ZM3576,3442c-11.29,8.03-23.24,3.93-40,8-20.99,5.1-43.71,12.94-65,21-54.27,20.54-146.67,112.66-167,167-11.71,31.29-20.14,64.82-29,97v105q4.005,10.005,8,20v19a260.159,260.159,0,0,0,13,42c33.18,80.61,115.94,167.02,206,191,19.41,5.17,45.4,15.33,66,21h105c108.66-27.83,208.3-83.62,248-179,5.6-13.47,20.23-29.12,25-43,76.57-222.88-68.24-417.67-240-461C3667.79,3440.36,3623.37,3441.92,3576,3442Zm-867,195q-49.995,40.5-100,81c-21.83,18.17-43.23,42.65-69,56-0.67-.33-1.33-0.67-2-1q-24-30.495-48-61c-1,.33-2,0.67-3,1q-216.48,517.455-433,1035c30.05,29.84,69.43,54.07,106,77,116.53,73.07,238.11,140.24,379,191q54,16.995,108,34,31.5,7.995,63,16c1-.33,2-0.67,3-1V4868q-29.49-23.505-59-47c-57.61-46.31-115.88-125.55-142-203-7.57-22.44-18.9-57.66-12-90,10.49-49.16,38.54-70.95,66-102q72.99-84.495,146-169c5.56-9.59,2-33.63,2-47V4094q-0.495-228.48-1-457h-4Zm4724,63v201q-4.005,66-8,132c35.03,22.23,65.19,51.39,95,79,138.65,128.42,235.97,284.89,300,489,14.03,44.72,19.41,89.13,30,138,15.86,73.18,21,154.81,21,243v77q-4.5,64.995-9,130-6.495,48.495-13,97c65.28,36.86,123.63,88.43,177,138,116.64,108.33,225.57,235.53,290,395,15.81,39.14,27.91,79.79,42,121,30.26-4.31,61.09-25.07,88-36,57.61-23.41,115.61-44.45,171-70,27.24-12.56,72.74-21,94-39,16.33-13.82,37.8-43.81,32-78-16.52-97.39-114.41-164.92-183-213-116.41-81.6-222.96-180.51-318-284-68.36-74.43-118.89-161.99-154-270-8.32-25.59-7.27-55.21-12-84q1.005-20.505,2-41,2.505-27.495,5-55,10.5-44.49,21-89c5.83-23.38,17.68-59.22,8-88-16.08-47.79-95.02-80.52-136-107-90.77-58.65-182-127.4-247-212-43.88-57.11-79.33-121.54-96-206-6.68-33.83-11.16-106.16-5-145,4.45-28.05,3.43-70.81-4-94-21.07-65.71-80.56-88.38-143-113C7466.89,3710.43,7450.58,3700.72,7433,3700Zm-848,325c-10.98,7.8-22.47,4.41-39,8-21.89,4.76-43.81,13.33-66,21-63.54,21.96-124.11,86.77-158,140-5.79,9.1-5.49,18.56-11,28-4.12,7.07-13.38,18.37-16,26-67.85,197.48,39.66,386.61,182,439l12,9c42.36,14.97,81.58,20.99,141,21h47c36.73-7.41,85.07-22.02,113-40l42-30q14.505-6,29-12c11.37-7.87,12.3-22.03,20-34,17.69-27.51,45.27-51.75,59-83q3-15.495,6-31c11.66-37.74,20-73.96,20-127v-34c-6.68-23.93-11.87-54.51-20-78-2.95-8.54-13.67-19.6-17-28C6880.83,4098.58,6756.71,4024.76,6585,4025Zm829,106q-7.5,49.995-15,100c-17.44,72.44-26.68,146.46-50,214q-22.5,66.495-45,133c-9.35,24.27-27.77,50.68-31,78q17.505,22.5,35,45c22.57,32.6,43.31,68.02,62,104,38.07,73.3,57.54,157.36,79,248q6.495,53.49,13,107,0.495,25.5,1,51c3.92,25.02,4.03,58.89,0,84q-2.505,50.49-5,101-3.495,28.995-7,58c24.45,10.92,46.07,29.99,67,45,100.52,72.08,177.4,170.1,223,297,16.58,46.14,19.89,96.93,29,152v39c0,47.96-3.01,90.82-12,132-3.67,16.8-19.33,58.43-16,73h1q198.975-81.495,398-163c34.12-13.48,67.64-26.23,100-41,11.99-5.47,29.4-7.05,38-16-59.99-216.2-178.89-367.43-322-500-40.31-37.34-86.77-72.18-133-103-15.25-10.16-58.69-29.19-67-43,17.73-67.07,14.2-137.35,26-212,12.63-79.93,8.83-202.28-4-278-8.63-50.96-8.35-98.12-22-144-12.96-43.57-22.01-87.47-37-129-39.63-109.81-94.34-207.02-162-289C7518.1,4225.65,7468.74,4163.02,7414,4131ZM2709,4388q-44.49,51.495-89,103Q2604,4508,2588,4525c-13.28,24.64.32,60.75,8,80,24.14,60.51,67.88,113.8,114,153,2.7-1.6,1.38-.34,3-3V4389C2711.67,4388.67,2710.33,4388.33,2709,4388Zm892,154c-15.15,10.8-34.34,2.44-57,8-20.92,5.14-43.63,12.95-65,21-77.78,29.3-153.01,114.06-183,192-76.77,199.5,41.62,387.39,182,441,21.63,8.26,48.49,22.15,73,29h131c89.45-25.39,161.12-60.49,208-128,14.81-21.33,36.98-41.98,47-68,12.75-33.12,22.92-73.31,30-110,10.33-53.48-9.92-112.68-21-148C3903.04,4642.05,3781.02,4541.77,3601,4542Zm2143,8-73,21c-38.6,14.95-103.15,58.05-127,88-9.7,12.18-15.65,26.11-25,39-10.13,13.97-26.13,31.95-32,49q-14.505,48.99-29,98c-7.35,33.06,2.57,92.71,8,115v18q6.495,21,13,42c29.6,76.42,97.14,154.5,174,184,21.63,8.3,48.37,22.11,73,29h28c18.36,3.92,44.35,14.78,73,9,68.21-13.77,119.99-28.4,169-60q16.005-7.005,32-14l40-40c23.51-33.91,56.14-90.35,69-132,53.51-173.32-45.59-338.41-148-399-35.98-21.29-80.11-36.15-125-47H5744ZM4644,4675c-19.9,12.14-50.97,12.46-73,21-75.3,29.18-164.03,108.25-192,184-12.71,34.42-18.62,75.3-29,113-7.3,26.5,3.98,59.46,8,76v28c17.84,72.61,54.71,127.71,100,173q11.505,12,23,24c12.9,8.07,24.8,17.18,37,25,9.59,6.15,20.41,5.97,30,12,38.68,24.32,91.84,35.99,154,36h34c40.24-8.12,96.33-20.3,128-39,98-57.86,176.99-149.27,177-306,0-36.77-.65-66.87-8-95-5.03-19.24-13.85-37.99-21-56q-4.005-4.995-8-10c-3.37-9.13-4.77-17.87-10-26-27.57-42.84-68.76-87.1-113-113-10.05-5.88-19.09-5.17-29-11-6.13-3.61-16.45-12.55-23-15-24.21-9.07-55.96-14.1-81-21H4644Zm2586,67c-58.08,128.46-151.08,248.64-242,346-183.89,196.92-415.69,345.59-705,437-76.57,24.19-156.37,43.28-238,62q-65.49,10.995-131,22c-48.97,11.7-101.48,11.18-155,20-70.67,11.64-152.04,16.82-229,17-29.2,61.98-55.2,129.59-72,204-7.61,33.69-7.94,67.52-14,104-4.42,26.59-3.14,60.02,1,85q2.505,30,5,60c10.32,51.33,24.89,99.02,45,140,94.23,191.98,248.23,278.04,448,364,40.61,17.47,83.15,24.79,127,39,89.56,29.02,187.32,40.1,290,58l109,15q397.455-163.485,795-327,49.995-19.5,100-39,118.485-49.5,237-99c23.83-9.64,112.71-38.32,124-53q-33.495-9.495-67-19v-6c12.29-34.54,18.07-75.59,25-115,14.04-79.82-2.68-167.58-21-228-38.55-127.14-124.93-222.03-226-287-24.11-15.5-51.31-25.68-77-40q5.505-36,11-72l9-96q0.495-48.495,1-97c-6.37-41.19,1.28-79.88-6-118-17.91-93.76-34.16-169.3-66-245a604.82,604.82,0,0,0-54-101C7247.58,4763.31,7241.83,4745.87,7230,4742Zm-5208,89c-9.38,10.29-12.28,25.93-18,40-12.02,29.58-24.15,60.9-38,91-41.71,90.63-77.5,184.67-116,278-122.23,296.26-250.11,590.83-371,889Q817.56,7713.345,156,9298h4q1001.4-409.965,2003-820c-2.28-19.43-27.47-52.95-37-70q-31.5-67.995-63-136c-42.57-92.18-68.3-199.92-92-308q-7.995-48.99-16-98c-8.44-39.44-3.21-78.03-10-120-5.57-34.43-8.98-87.1-3-124q0.495-33.495,1-67c10.87-65.04,8.67-132.35,23-191l9-57c16.3-72.08,32.15-147.11,59-212,25.11-60.68,46.97-121.62,75-179,81.6-167.07,188.35-311.74,311-438,64.32-66.21,131.92-128.52,208-183,25.59-18.32,53.28-47.96,84-59,5.96-32.15,2-75.31,2-111q-0.495-80.985-1-162c-0.67-.33-1.33-0.67-2-1-3.53,3.7-2.34,5.8-9,7-47.9-29.7-74.91-72.09-93-132-20.12-66.63-11.42-141.3-59-179-36.99-29.31-84.32-48.45-141-58-65.78-11.09-133.65,17.88-194,0-102.67-30.42-145.88-203.71-158-328l2-2c24.64-2.96,54.99-18.41,79-15,12.32,83.61,36.54,238.4,101,265,32.68,13.49,102.75-11.38,144-5l62,6c47.05,10.39,92.52,26.9,128,50,42.71,27.82,74.68,65.78,93,118,20.05,57.14,18.47,125.07,44,175h1c0.67-1,1.33-2,2-3q0.495-265.47,1-531V5202c0-16.5,2.24-39.29-3-51-62.77-6.97-125.28-32.07-180-51-129.12-44.67-246.65-96.56-354-163q-54-35.49-108-71Zm1571,761c-14.09,8.66-28.56,3.15-49,8-20.85,4.95-43.73,13.02-65,21-6.56,2.46-16.84,11.42-23,15q-5.505,1.005-11,2c-28.45,16.69-78.87,57.84-97,84q-10.5,17.505-21,35-11.505,15.495-23,31c-11.59,31.29-20.44,64.79-29,97v113q4.005,10.005,8,20c24.15,86.27,59.4,153.95,127,196,9.03,5.61,16.76,18.76,27,23,10.6,4.39,17.36,4.38,27,10,45.27,26.38,92.33,36,167,36h50c63.55-15.04,102.58-38.18,149-68q16.005-7.005,32-14c11.01-8.04,11.41-25.35,19-37q10.5-10.005,21-20c5.47-8.14,5.93-14.56,11-24,7.16-13.33,22.94-22.52,28-38C4029.5,5811.15,3863.59,5592.15,3593,5592Zm958,57c-1.67.67-3.33,1.33-5,2v351c0,29.28-6.67,124.63,2,144,23.77,7.81,45.34,25.13,66,37,39.38,22.62,77.08,45.15,113,71,1.54-2.57,1.93-4.14,2-9-6.93-23.92-4.63-49.59-9-77-4.69-29.44-4-65.58-4-100-0.01-108.23,11.02-202.43,34-290q18.495-63.99,37-128h-2Q4668.015,5649.505,4551,5649Zm330,0c-1.67.67-3.33,1.33-5,2q-10.995,32.49-22,65-14.505,54.495-29,109c-30.65,120.42-36.94,301.24-9,429q7.005,35.49,14,71c6.81,19.66,53.72,47.94,70,63,50.25,46.48,98.41,94.86,145,145,81.56,87.76,149.05,190.91,212,297q27.495,52.995,55,106l18,42,116,73c-2.6,13.4-30.72,62.53-40,71q-10.995-4.995-22-10c-0.33.67-.67,1.33-1,2q6.495,19.5,13,39,454.95-185.475,910-371c-1.32-3.83,0-2.08-3-4q-57-10.005-114-20c-71.65-16.6-142.71-32.71-210-54-256.33-81.09-480.77-221.34-575-465-34-87.91-63.39-232.69-37-355,18.34-84.98,36.73-161.66,68-232-0.67-1-1.33-2-2-3H4881Zm-334,593v802h1c43.57-15.23,84.49-36.66,135-48,223.32-50.12,353.12,137.16,409,282l224-91c0.33-2,.67-4,1-6-13.34-39.66-27.36-79.06-42-116q-4.995-13.995-10-28-51-37.995-102-76c-71.88-59.85-143.36-125.04-201-199a1419.738,1419.738,0,0,1-145-228q-22.995-56.49-46-113c-4.58-13.68-5.26-30.13-13-41q-18.495-13.5-37-27a1332.3,1332.3,0,0,0-116-78C4588.66,6265.16,4567.8,6244.9,4547,6242Zm-1838,96q-38.49,28.995-77,58c-56.26,43.17-114.19,94.09-161,147-107.43,121.42-207.16,248.46-283,402-24.35,49.31-43.93,101.33-66,153q-16.5,48.99-33,98c-18.86,44.49-23.82,100.62-35,151-20.83,93.8-28.99,197.59-29,312-0.01,42.91-1.99,84,5,124q6,50.49,12,101c14.3,67.75,24.99,136.18,45,197,12.44,37.82,20.5,73.01,34,109,20.78,55.39,47.23,108.56,71,160,12.49,27.03,32.19,75.68,52,95l339-139v-1c-10.09-6.24-27.84-2.41-41-6-28.26-7.72-55.08-16.44-79-29-100.99-53.03-188.5-141.47-242-242-55.73-104.71-19.2-224.75,28-311,85.44-156.13,192.32-277.08,317-393,45.13-41.96,94.16-83.13,147-117V6339C2711.67,6338.67,2710.33,6338.33,2709,6338Zm2188,163c1.43,24.86,44.19,84.53,57,105,47.38,75.72,102.27,142.71,166,202,17.73,16.5,33.17,35.5,53,50h1c-3.74-24.49-50.5-83.6-65-105C5050.54,6666.76,4975.39,6566.63,4897,6501ZM3579,6633c-22.51,12.04-58.02,12.47-82,21-68.81,24.47-168.12,109.73-193,176-11.63,30.97-20.88,64.75-29,97v104q4.005,10.5,8,21v19q6.495,20.505,13,41c32.14,82.98,116.78,166.05,207,192,19.9,5.72,45.58,15.89,67,21h101c21.69-4.76,47.16-14.83,67-21q17.505-4.995,35-10c21.85-13.98,45.12-31.54,66-46,22.07-15.29,48.09-32.01,63-54,6.09-8.98,6.04-18.51,10-30,8.97-26.03,30.39-45.03,38-76,8.25-33.6,25.26-96.23,17-140-23.82-126.25-86.68-237.28-195-277-8.18-3-18.86-13.95-27-17C3696.61,6635.9,3645.53,6632.89,3579,6633Zm1162,440c-20.71,7.7-47.83,4.09-68,11-45.07,15.44-91.4,32.37-127,58q0.495,178.98,1,358c11.42-.59,101.82-38.23,107-44-32.96-106.86,96.37-141.93,135-55,26.47-2.66,52.15-20.96,75-30l149-61C4981.91,7198.81,4884.72,7072.3,4741,7073ZM2710,7312q-29.49,23.505-59,47-38.49,34.995-77,70l-50,53c-72.3,75.23-133.63,156.26-188,250-28.02,48.3-86.24,156.97-52,232,21.01,46.04,48.99,80.15,78,117,30.71,39,73.5,76.24,117,102,25.47,15.08,94.1,52.09,131,28q45.495-42.99,91-86,89.49-76.995,179-154,174.48-142.98,349-286c-0.33-.67-0.67-1.33-1-2H2876c-21.58,0-119.98-3.64-128,2,0.33,0.67.67,1.33,1,2,66.83,24.62,21.73,162.82-65,129-35.88-13.99-63.65-63.54-38-108,14.17-24.56,35.08-26.96,67-35V7315C2711.64,7312.95,2711.88,7313.39,2710,7312ZM1097,7449h10v2c12.41,29.3,11.31,66.88,18,100,21.78,107.83,44.5,225.76,123,277,45.96,30,176.11-10.78,248,1,107.91,17.68,187.25,44.62,259,96,51.12,36.61,84.72,97.64,103,167,15.1,57.31,13.95,124.36,34,177,10.44,27.41,26.65,53.16,46,72q16.005,12.495,32,25c1.74,5.82-36.28,67.06-43,71-55.41-39.02-93.49-82.64-118-153-12.77-36.67-13.76-76.24-22-118-12.03-60.96-25.39-110.11-57-150-40.99-51.73-196.62-121.15-307-104-48.94,7.6-134.25,18.5-181,4-105.88-32.85-142.92-140.73-176-248-14.44-46.84-20.37-101.85-32-152-2.81-12.12-11.4-46.15-6-52Zm2266,234q-87.495,71.49-175,143c-103.47,90.82-212.73,176.52-318,265-51.34,43.16-99.32,89.9-150,133-15.35,13.06-32.47,25.25-45,41l2,2q370.47-151.98,741-304,150.99-60.99,302-122c16.39-9.05,26.53-32.38,39-46q45.99-54.99,92-110c-0.33-.67-0.67-1.33-1-2H3363Zm601,0c-20.96,23.63-58.15,57.3-71,86h1q101.985-42,204-84v-1Q4031.01,7683.505,3964,7683Z"/>
</svg>
