<svg xmlns="http://www.w3.org/2000/svg" width="562.447" height="574.646" viewBox="0 0 562.447 574.646">
  <path id="Forma_1" data-name="Forma 1" d="M452.466,154.038c30.727-.467,58.414-.015,79.841,8.71,29.284,11.924,120.149,74.169,137.907,97.26,53.811,69.97,83.034,212.417,20.323,294.685,8.5-39.457,45.753-81.317,34.84-143.713-10.514-60.111-38.385-138.682-79.841-169.843l-43.549-26.13c-26.388-18.677-49.673-43.245-84.2-53.711-69.4-21.049-161.415,8.186-207.586,27.581l4.355-5.807c18.957-8.116,36.889-17.26,62.421-21.775Zm47.9,11.613c.155,3.523-.581,4.626-2.9,8.71,22.014,1.948,48.428,17.529,60.969,30.485l-52.259-26.13c-43.9-10.252-84.348,25.694-124.842,5.807l27.581-1.452,2.9-11.613,2.9,1.452v1.452l-4.355,10.162h10.162c3.075-5.738,4.922-7.244,5.807-15.968l2.9,1.452v7.258l-5.807,7.258C444.291,183.7,488.989,178.243,500.37,165.652Zm-123.39,17.42Zm-40.646,1.452,5.807,5.807-2.9,13.065,24.678-11.613-1.452,2.9c-31.2,10.331-66.606,34.485-85.647,58.066-9.29,11.512-29.412,40.635-46.453,37.743,17.745-5.256,26.855-18.164,26.13-42.1l2.9,1.452c1.285,9.064.4,13.31-2.9,20.323l10.162-8.71a59.051,59.051,0,0,0,2.9-20.323c2.848,3.178,3.313,4.637,4.355,10.161l1.452-2.9c8.935-6.556,57.371-41.029,60.969-47.9ZM307.3,188.878h2.9l-40.646,27.581c-27.917,19.806-54.6,47.312-72.582,76.937-10.391,17.121-18.314,39.408-23.226,60.969l-4.355,30.485C170.047,270.442,244.965,241.351,307.3,188.878Zm59.518,0Zm-2.9,1.452ZM387.141,212.1c-47.9,2.8-67.792,56.815-104.519,72.582l2.9-4.355c16.694-7.289,20.433-23.264,33.388-33.388,14.313-11.185,31.646-24.425,46.453-33.388,12.146-7.348,37.6-18.857,53.711-14.516L435.046,209.2c15.388,3.919,30.412-15.083,50.808-11.613,27.088,4.608,37.743,21.1,56.614,31.936,14.788,8.5,39.73.954,47.9,15.968-5.969-4.065-8.794-6.512-18.871-7.258l-10.162,5.807-2.9,13.065,5.807,10.162c11.991,3.359,17.42,1.788,26.13-4.355l-4.355,7.258c-9,2.421-14.234,2.394-23.227,0l-7.258-8.71c-.341-11.914,1.549-15.5,5.807-21.775l-33.388-15.968c-4.7,14.575-15.062,16.736-29.033,21.775l-5.807-4.355V230.976h1.452c.312,6.551,1.028,7.826,2.9,11.613h1.452c14.413-3.872,19.442-8.64,26.13-20.323v-1.452c-3.619-4.828-4.756-6.961-10.161-10.162l-23.226,8.71c2.565-4.732,15.62-9.581,14.517-11.613-18.2-4.59-55.356-9.848-66.776,7.258l-5.807-5.807c-13.55-5.821-27.825-10.172-42.1-1.452l-1.452,10.162c10.989,14.135,23.094,23.785,46.453,17.42l-1.452,2.9c-21.66,3.75-40.192-1.347-46.453-17.42Zm174.2-13.065c24.5,19.934,35.847,49.937,74.034,56.614l-1.452,2.9-14.517-2.9L632.47,270.17l18.871,1.452c-3.255,4.323-3.979,4.147-11.613,4.355l7.258,8.71h1.452l14.517-2.9v1.452l-1.452,2.9-10.162,1.452c15,23.1,33.315,42.787,36.291,78.389h-1.452C677.139,281.194,590.612,262.239,561.339,199.04Zm-1.452,5.807ZM439.4,215.008l1.452,2.9Zm72.582,1.452,8.71,1.452,1.452,2.9c-4.047,11.072-10.855,19.027-23.226,17.42l-2.9-13.065,4.355,2.9,2.9,8.71,14.516-13.065-1.452-4.355h-17.42Zm-71.131,1.452,1.452,4.355h-1.452Zm-8.71,1.452,7.258,1.452v5.807h-1.452v-4.355l-5.807,1.452c1.418,8.089-.435,6.062,5.807,5.807-1.967,2.983-1.626,2.336-4.355,4.355-2.758-1.993-2.375-1.412-4.355-4.355v-4.355Zm58.066,0,1.452,4.355h-1.452Zm4.355,2.9,1.452,2.9Zm-211.941,1.452,2.9,10.162-5.807,8.71v-5.807Zm60.969,272.91c-6.588-.081-8.343-.29-11.613-2.9-8.7-3.856-17.582-21.747-14.516-27.581v-1.452c3.3-9.211,6.084-16.33,13.065-21.775-3.888,9.436-8.18,13.566-8.71,27.581h1.452c-.09-16.888,6.849-25.864,18.871-30.485-7.567,10.24-12.724,21.807-20.323,33.388,4.065,10.6,7.949,16.618,17.42,21.775l4.355-1.452c1.079-5.9-.662-12.583,2.9-17.42h1.452c1.354,12.134,6.628,24.814,4.355,43.549,10.533,3.9,11.438,10.841,17.42,18.871,5.85-6.477,11.7-11.956,23.226-8.71,1.209-36.7,23.094-41.307,50.808-52.259V463.24c.075,13.261,3.674,20.139,7.258,29.033,28.091,13.672,42.824,49.54,76.937,13.065-1.369-6.177-1.675-4.86-4.355-8.71,22.994,4.065,43.025-3.048,45-24.678l-5.807-7.258c-17.813-4.944-30.04.682-42.1,8.71l2.9-5.807c5.361-2.813,4.5-1.569,5.807-8.71l-5.807-8.71c-11.3,1.681-8.842,6.887-17.42,1.452-.435-10.1-.338-15.158-4.355-21.775H500.37l-8.71,1.452c-.067,11.339-2.912,19.136-8.71,24.678,2.639-8.177,5.352-11.825,5.807-23.226H481.5c.425,12.75-1.508,19-5.807,26.13l-14.516-1.452,8.71-1.452q-.726-9.436-1.452-18.871l5.807-4.355c5.615-3.828,25.758-6.9,31.936-4.355l4.355,2.9c-1.574,9.63-3.786,13.023,1.452,20.323l7.258-5.807c8.253,2.683,11.918,6,13.065,15.968l7.258-1.452v-1.452c-3.6-8.983-22.756-32.5-30.485-36.291-11.3-3.291-26.214-.393-36.291,1.452,4.657-18.633-22.916-17.243-37.743-13.065l8.71-7.258c-10.62-.856-10.426,1.783-17.42,7.258l8.71-11.613-8.71-14.516,4.355,4.355c.7-11.644,4.085-13.227,10.162-18.871-22.4.717-30.106-8.235-34.84-24.678-9.7-.074-30.63,5.133-33.388,2.9-17.886-17.931-48.206-37.635-72.582-10.162l2.9,2.9,2.9,5.807,1.452-1.452-2.9-4.355h1.452l4.355,1.452-4.355,13.065,5.807,2.9-2.9,5.807c-6.261.3-7.007.38-10.161,2.9l1.452,8.71c16.07,1,24.533,7.765,29.033,18.871-32.235-26.882-79.244-13.21-60.969,37.743l-4.355-2.9a68.155,68.155,0,0,1-2.9-30.485c-16.665,4.34-27.053.707-34.84-11.613l-2.9,1.452c-1.81,14.572,3.76,23.4,5.807,37.743l-5.807,53.711c9.42,44.711,33.948,99.741,71.131,119.035l-5.807-14.516c-22.1.6-34.173-24.327-24.678-43.549-.772,21.431,3.2,29.625,11.613,40.646l15.968,1.452c1.68,11.237,7.036,19.227,15.968,23.226,11.314,6.326,28.641.377,36.291-5.807,3.85,25.712,22.022,30.788,50.808,27.581l2.9-8.71c-23.965,12.136-38.142-2.135-50.808-17.42l1.452-8.71c2.021-2.792.145-.871,2.9-2.9,13.2-8.181,23.192,3.94,36.291-1.452l4.355-8.71-7.258,14.516c-13.4-1.6-25.427-8.682-34.84,1.452a36.817,36.817,0,0,0,21.775,23.226c26.13,8.07,31.142-9.119,37.743-26.13.073,12.194-2.835,16.228-7.258,23.226,5.415-2.19,7.276-2.355,10.162-7.258,3.959-7.993,1.68-15.5,0-24.678h1.452a73.044,73.044,0,0,1,1.452,29.033c29.994,3.954,33,31.766,15.968,49.356-6.588-.081-8.343-.29-11.613-2.9h11.613L439.4,650.5c.391-20.759-8.855-27.684-23.226-33.388-9.672.229-13.145,2.333-18.872,5.807,1.381,4.523,4.59,4.355,0,7.258v2.9c-24.823-3.465-47.888,3.909-53.711-26.13-9.831,3.906-18.683,5.905-33.388,5.807,17.633,25.427,69.893,31.356,90,45l-5.807-8.71,11.613,7.258,8.71-11.613,7.258,2.9v4.355l-4.355,1.452c1.039-5.894,2.915-1.714-1.452-5.807l-4.355,2.9-5.807,10.162a202.693,202.693,0,0,0,84.2,4.355c-7.467-8.313-14.109-17.646-21.775-26.13a18.164,18.164,0,0,1-14.516-1.452c22.065,1.029,39.419-6.114,40.646-26.13L484.4,602.6c-21.529-6.512-33.5,7.489-42.1,18.871,4.4-18.192,34.493-27.95,49.356-34.84L481.5,598.243c16.524,3.716,12.552,14.794,21.775,24.678,5.12-3.442,5.857-4.956,14.516-5.807v2.9l-2.9,14.516,2.9-1.452c1.9-6.457,2.8-10.06,1.452-17.42l-4.355-1.452-14.516,2.9v-1.452l8.71-5.807,7.258,1.452,7.258,4.355c.35,14.788-3.067,17.989-10.162,24.678,2.986,5.371,3.451,5.056,2.9,11.613,10.344-1.694,15.777-3.271,21.775-11.613l-4.355,1.452,2.9-4.355,2.9-1.452-1.452-2.9c-7.88-2.632-6.8-2.215-5.807-10.161l14.516-7.258-15.968-21.775-11.613,1.452c3.4-3.278,3.725-3.448,10.162-4.355,7.871,7.486,15.356,14.187,20.323,24.678l-15.968,13.065,8.71,4.355v7.258c-5.673,9.649-17.008,18.527-29.033,13.065V644.7c-10.33,3.715-9.155,10.694-21.775,13.065-5.706-5.766-9.59-10.6-11.613-20.323H474.24v4.355c22.373,45.138,78.353,17.505,79.841-29.033-6.678-14.434-18.268-24.725-26.13-29.033,7.866-1.812,7.956,3.194,14.516,1.452l10.162-11.613c-2.719,8.01-6.724,10.574-11.613,15.968l1.452,2.9,5.807-4.355c2.461-7.912,5.316-11.737,13.065-14.517-2.314,4.9-3.406,6.454-1.452,11.613l2.9-1.452-1.452-8.71,4.355,1.452c-.367,12.375-5.059,9.436-4.355,15.968l-10.162-5.807-5.807,7.258c2.591,4.272,11.648,28.13,13.065,29.033-11.758,12.355-10.507,37.087-31.936,43.55l-18.872-2.9c-78.123,14.917-92.209,1.54-150.971-21.775l-36.291-10.161-21.775-24.678c-12.319-9.235-28.439-14.011-37.743-26.13-14.5-18.887-20.613-49.742-30.485-72.582-14.4-33.328-13.483-165.468,1.452-178.553-6.1,17.532-3.648,25.889-10.162,43.549,5.551,15.746,24.592,36.114,43.549,20.323L262.3,380.5c-6.7,2.928-12.252,15.772-21.775,13.065-18.092-5.143-16.151-27.027,7.258-33.388v-2.9l-4.355-4.355c5.885,1.989,4.293,1.43,7.258,5.807l-2.9,4.355c-9.125-.279-12.608.237-15.968,5.807v4.355c1.637,9.224,4.774,13.42,11.613,17.42l17.42-14.516,4.355,2.9,1.452,10.162,14.516-8.71c-.3-18.871,1.321-22.486,10.162-36.291-14.67,3.5-21.93-.639-31.936-8.71l7.258-2.9c3.422,10.016,10.858,11.819,21.775,10.162l-4.355-4.355c-7.353.775-10.63-2.7-17.42-5.807l4.355-5.807h1.452l5.807,1.452a32.205,32.205,0,0,1,18.871,27.581c-7.808,1.787-10.468,3.435-14.517,8.71,7.808,2.344,8.565,2.98,8.71,13.065l5.807-1.452c-.447-14.2,4.15-12.5,5.807-26.13-4.271-10.635-9.777-16.523-15.968-24.678,5.306,2.4,6.257,3.468,8.71,8.71,14.474-4.052,20.613-12.24,40.646-13.065l-1.452-17.42c-10.269-1.036-18.195-5.258-23.226-11.613l7.258-10.162c-2.479,6.01-4.14,6.209-2.9,13.065,13.808,4.538,26.674,9.749,34.84-4.355l-5.807-11.613-18.871-8.71c27.146-.193,31.369,19.488,17.42,34.84l5.807,20.323c11.85,6.358,16.549,11.692,36.291,11.613v-1.452c-2.924-6.784-7.007-19.812-2.9-29.033-1.321,22.37,3.417,37.135,26.13,36.291,1.561,10.9,5.881,17.91,14.516,21.775,28.248,16.163,46.916-21.358,56.614-34.84.7-27-15.615-53.094-31.936-60.969H417.626l-1.452,5.807v1.452c14.823-.774,23.534-4.372,33.388,1.452-1.727,8.91-2.919,12.319,0,20.323,4.414-3.088,6.21-5.914,11.613-4.355l7.258,4.355c11.9,35.5-1.9,28.888-17.42,33.388,2.966,6.489,7.724,15.045,4.355,23.226-2.021,2.792-.145.871-2.9,2.9-10.549,7.306-26.379.656-33.388-4.355.35-11.66,3.581-14.081,5.807-23.226l-1.452-1.452c-7.02-.129-4.953,1.407-8.71-1.452,7.839-12.391,7.853-26.879,2.9-42.1l2.9,1.452c4.866,14.981,4.616,28.307-2.9,40.646l8.71,1.452c-2.69,14.543-8.948,43.4,23.226,27.581,2.983-1.967,2.336-1.626,4.355-4.355l-5.807-23.226,2.9-2.9,14.516,4.355v-2.9c4.774-8.456,2.021-20.776,0-26.13-4.9-.023-7.681-2.556-11.613,0l1.452,2.9c-5.1-1.668-5.952-1.908-8.71-5.807-4.04-7.4-.962-16.428-2.9-21.775l-27.581,2.9,1.452,5.807c-4.1-1.476-2.286-1.026-4.355,0l2.9,34.84c-8.073,3.168-6.633,6.069-13.065,10.162v-1.452c8.4-12.3,11.242-22.138,7.258-40.646h-1.452c.785,7.839,2.177,11.22-1.452,15.968-.916-16.54,1.36-19.247,7.258-30.485l-10.162,10.162c1.868-5.448,8.42-24.222,10.162-26.13a33.824,33.824,0,0,0-13.065-14.516l-7.258,1.452c1.662,6.993,3.808,7.718,0,13.065v-2.9l-2.9-7.258,4.355-7.258h7.258c9.384,5.69,15.161,11.658,15.968,26.13l26.13-1.452V248.4l4.355,18.871,10.162,5.807v-2.9c1.968-6.1-.031-7.1-2.9-11.613l7.258,5.807c-1.2,9.095-2.963,9.559-2.9,17.42,7.113,1.849,10.7,5.168,14.516,10.162l10.161-8.71,2.9-7.258c6.532-21.248-6.17-28.235-17.42-36.291l17.42,8.71c6.6,19.215,6.026,36.8-11.613,46.453L478.6,299.2l1.452,1.452c19.712-9.828,27.487-48.159,5.807-62.421-7.951-5.226-22.373-2.643-30.485-4.355,61.26-14.418,31.8,39.321,53.711,52.259l-5.807-8.71,11.613,7.258c2.49-6.368,4.632-8.36,10.161-11.613l4.355,1.452,1.452,5.807-4.355,1.452v-5.807c-7.605,5.081-8.79,11.532-18.872,14.517l-5.807-8.71-1.452,2.9c-5.866,7.319-9.076,13.791-18.871,17.42,2.392,29.567-5.455,30.578-13.065,52.259l5.807-2.9c-3.273,5.526-5.12,8.513-5.807,17.42A136.2,136.2,0,0,0,484.4,389.206c-9.254-2.794-14.04-7.344-17.42-15.968a24.026,24.026,0,0,1,1.452-17.42c-6.519,4.953-9.436,8.9-18.872,11.613v1.452c7.549.726,9.343,1.671,13.065,5.807-5.586-1.772-12.355-4.316-18.871-1.452-8.4,3.644-10.645,10.564-8.71,20.323l8.71,8.71c13.646.354,16.947-2.346,23.226-8.71,3.085,9.145,18.581,23.961,30.485,24.678l2.9-1.452c2.347-11.535,8.974-14.964,23.226-14.516,7.058,3.382,10.225,5.251,13.065,13.065l-2.9-1.452-7.258-8.71c-14.807-.726-19.936,2.231-23.226,13.065h1.452c4.9-6.63,6.206-9.392,17.42-10.162l7.258,2.9,1.452,4.355c-4.548-2.815-8.136-5.545-14.516-2.9l-7.258,5.807v1.452c8.69,3.919,9.7,8.459,20.323,7.258l-1.452,2.9c-5.239,2.4-3.41.4-5.807,5.807,8.7-2.032,9.291-5.323,14.516-10.162-2.588,7.087-5.788,8.289-10.161,13.065,9.846,3.371,13.409,9.793,15.968,20.323,13.233-.742,21.6.687,26.13,8.71,2.636,3.294,2.77,5.018,2.9,11.613-7,14.469-18.941,22.024-40.646,21.775-1.492,10.24-3.838,10.1,2.9,15.968v-2.9l20.323-15.968,7.258,1.452,7.258,8.71,1.452,8.71c-6.711,10.636-10.609,17.076-21.775,23.226l-5.807-7.258,8.71,4.355c5.923-7.067,18.826-15.21,13.065-29.033-2.713-5.174-3.51-4.763-8.71-7.258-6.823,3.153-13.818,6.544-17.42,13.065-4.319,6.341.839,20.207,1.452,33.388a24.86,24.86,0,0,1,26.13,5.807l-4.355-1.452,4.355,7.258c-13.991-8.916-23.314-9.042-34.84,0v5.807l2.9,1.452c6.638-3.069,9.5-.523,14.516-2.9l-13.065,17.42c-.132-7.051-4.237-1.617,1.452-10.162l5.807-4.355c-16.887,4.664-25.719,13.283-42.1,17.42l-26.13-4.355c-7.209,1.534-16.073,10.713-26.13,13.065-11.478,2.684-38.469-11.664-39.195-10.162L398.755,563.4l-14.516,2.9L372.625,560.5c-.435,11.613-3.867,13.843-8.71,20.323l33.388-7.258v1.452l-53.711,13.065a30.1,30.1,0,0,1-5.807,13.065c-34.3,4.936-35.346-8.118-29.033-31.936-5.766-2.163-5.91.581-4.355-4.355,7.775.212,9.886-2.546,15.968-7.258-6.492,12.221-21.021,23.3-11.613,39.195l26.13,1.452,5.807-7.258c-3.194-8.251-6.843-16.534-4.355-26.13,8.218.3,9.746,1.574,14.517,4.355l2.9-2.9a56.879,56.879,0,0,0,0-27.581l-5.807-5.807-27.581,13.065c-3.429-7.826-8.47-10.742-18.871-11.613-28.76,17.206-.826,24.473-2.9,33.388h-1.452c-11.128-3.525-15.832-25.911-14.517-26.13l8.71-4.355-1.452-17.42,2.9-5.807c11.787-3.533,30.8-8.245,42.1-2.9-1.386,10.722-4.156,15.334,1.452,23.226,4.593-3.439,6.274-6.788,13.065-4.355l5.807,2.9c4.384,13.132,5.454,27.468-1.452,39.195-9.195-1.915-12.465-8.028-15.968,1.452l5.807,13.065c12.954-5.589,19.112-10.241,26.13-21.775-6.447-26.975-12.149-47.457-31.936-59.518-10.161-8.557-32.063-.658-42.1-2.9,17.182-4.491,34.288-5.449,47.9,2.9Zm107.422-261.3Zm13.065,2.9,7.258,1.452Zm-95.809,2.9h5.807c-2.5,2.337-3.76,2.722-5.807,5.807l5.807-2.9c-2.851,7.5-7.146,9.048-11.613,14.516l-4.355-4.355v-1.452Zm8.71,1.452c10.417,4.532,12.416,13.805,21.775,18.871v1.452c-10.027-2.041-16.516-7.228-21.775-14.516l5.807,1.452Zm79.841,0,5.807,2.9V251.3l-4.355,2.9,1.452-8.71-2.9,1.452V254.2l-2.9-1.452v-5.807Zm60.969,0c22.437-.057,36.548,15.3,33.388,36.291,22.805.283,24.6,12.475,37.743,17.42l18.871-1.452,8.71,7.258c-1.267,22.367-23.142,34.737-20.323,59.518l-11.613-2.9c5.821-.841,4.342.067,7.258-2.9,4.21-6.188,7.965-21.126,2.9-27.581-7.033,2.05-7.549,3.774-11.613-2.9l-1.452-10.162h1.452l1.452,2.9v8.71l2.9,1.452c13.512-3.4,23.662-8.36,26.13-23.226l-7.258-8.71-24.678,7.258c.594-7.322-.274-5.728-5.807-13.065-33-11.256-51.012,3.629-66.776,26.13,2.1-15.219,8.69-21.068,15.968-30.485l11.613,4.355,11.613-11.613c.607-21.011-11.069-32.74-30.485-33.388l-11.613,7.258,2.9,5.807c-5.64.7-1.388-1.179-5.807,1.452v-7.258Zm50.808,0c11-.5,15.161.446,18.872,7.258l-8.71-4.355v1.452h2.9l5.807,5.807-17.42-7.258-5.807,8.71c3.194,5.335,4.355,5.94,10.162,8.71,7.639-1.036,8.363-2.626,13.065-5.807-5.8,13.148-18,7.74-26.13,1.452l1.452-8.71Zm-172.746,2.9,10.162,5.807c-.748,12.889-3.667,21.169-8.71,29.033l-11.613,1.452c13.554-3.766,14.981-15.456,17.42-26.13Zm194.521,0,1.452,2.9Zm-142.262,1.452,2.9,8.71-2.9-1.452Zm20.323,0,7.258,1.452c-1.277,8.282-1.8,8.973-10.162,10.162l2.9-1.452,4.355-5.807-1.452-1.452-7.258,7.258Zm-105.97,2.9Zm148.068,0h4.355v5.807h-4.355ZM374.077,251.3c7.424,4.046,12.907,8.915,15.968,17.42Zm-7.258,2.9a39.12,39.12,0,0,1,20.323,15.968C378.391,266.071,372.211,261.564,366.818,254.2Zm152.423,0,8.71,1.452c5.661,2.948,5.383,5.214,8.71,10.162l-1.452,7.258h-1.452c-.491-8.71-1.8-11.033-7.258-14.516C522.508,255,520.459,255.449,519.241,254.2Zm-68.227,1.452Zm140.81,0,7.258,5.807-4.355-2.9C591.936,256.536,593.856,258.412,591.824,255.654Zm-137.907,1.452Zm23.226,0c6.532,1.264,5,1.34,8.71,4.355l-1.452,4.355-2.9,2.9h-5.807l-2.9-4.355c5.081,1.077,4.9,1.378,8.71-1.452l-1.452-2.9-8.71,4.355,2.9-5.807Zm37.743,0c2.925,2.086,3.526,3.271,5.807,5.807l4.355-4.355-2.9,8.71c4.027-1.876,4.142-2.927,8.71-1.452L523.6,270.17c-7.877-1.145-10.615,2.372-20.323,5.807l2.9-4.355,11.613-8.71-2.9-2.9-4.355,1.452Zm-152.423,1.452c8.955,5.444,20.759,9.484,23.226,21.775h-1.452l-2.9-5.807-8.71,2.9,2.9,4.355,8.71-1.452c-2.021,2.792-.145.871-2.9,2.9H371.173l-1.452-2.9,1.452-5.807c4-.938,2.022-.1,2.9-2.9l-10.161,7.258c2.942-6.451,2.58-6.255,7.258-11.613C365.867,264.872,364.917,263.8,362.463,258.557Zm227.909,1.452,1.452,2.9ZM468.434,270.17c9.336,1.289,8.756,3.008,13.065,8.71l-1.452,4.355-2.9,1.452h-5.807l-2.9-8.71h1.452c2.555,5.573.411,4.223,7.258,5.807v-4.355C474.589,274.422,469.014,270.811,468.434,270.17Zm-145.165,1.452Zm1.452,4.355c3.048,3.991-.353,9.64-2.9,15.968h2.9l14.516,1.452,2.9-4.355-4.355-5.807c-4.959-2.346-4.857-2.363-7.258-7.258,8.385,5.069,17.979,9.68,13.065,20.323h-2.9c-7.353,2.122-13.72.389-20.323-1.452l-1.452-1.452Zm27.581,0Zm8.71,0,1.452,2.9Zm-4.355,1.452h2.9l-4.355,5.807-1.452-1.452,2.9-1.452ZM615.05,278.88l2.9,4.355Zm-81.292,1.452h5.807v1.452l-1.452,2.9Zm-4.355,1.452,7.258,2.9-1.452,2.9h-4.355Zm-164.036,1.452,7.258,10.161c13.711,4.14,20.928.3,31.936-4.355l-4.355,5.807c-13.332,4.712-19.873,6.024-31.936-1.452Zm252.587,0,2.9,4.355Zm-338.234,1.452h2.9l-4.355,2.9Zm-4.355,2.9c.1,2.613,1.656,1.786-2.9,4.355Zm345.493,0,2.9,4.355Zm-393.4,4.355Zm396.3,0,2.9,4.355Zm-58.066,2.9c5.277.935,4.394.581,7.258,2.9V299.2c-5.207.536-2.34-1.928-4.355,2.9C564.592,298.572,564.366,300.571,565.694,294.849Zm-34.84,1.452c5.555,1.918,3.019,0,5.807,4.355l-2.9-1.452c-2.613,2.964-.022,1.026-4.355,2.9Zm95.809,0c17.654,14.608,34.888,37.843,42.1,62.421l2.9,29.033c2.584,7.1,14.09,12.274,10.162,26.13-2.642,9.318-13.262,24.832-15.968,31.936-7.277,19.108,6.363,48.4-1.452,68.228-8.376,21.252-30.339,30.775-42.1,50.808a15.47,15.47,0,0,0-21.775-7.258c-8.534,3.787-9.424,9.77-8.71,18.871l2.9,5.807c9.819,4.957,16.306,3.943,26.13,0l-4.355,5.807-40.646,21.775,30.485-20.323c-12.774-1.742-18.745-7.276-18.871-21.775l1.452-4.355,10.162-10.161c11.436-.216,15.926,1.816,23.226,4.355,11.535-28.416,63.668-45.7,39.195-105.97-19.548,10.809-43.082,4.667-60.969-4.355-1.325,8.028-2.638,14.293-7.258,18.871l5.807-49.356h-2.9c-7.756-3.937-16.211-2.125-24.678,0,7.739-7.785,19.242-5.348,30.485-2.9l2.9-4.355c-1.723-7.242-3.027-12.089-1.452-20.323h1.452c-.457,8.514,4.6,15.274,2.9,21.775s-7.717,8.855-8.71,20.323c7.952,17.436,30.17,30.351,52.259,21.775,17.488-7.22,27.436-29.418,27.581-50.808L661.5,379.044l5.807,2.9c.65-23.245-5.394-37.251-17.42-42.1H633.922l-7.258,8.71,1.452,10.162,8.71,10.162c12.819.232,15.112-2.35,21.775-7.258-2.4,5.306-3.468,6.257-8.71,8.71-9.973,3.048-16.82-.264-23.226-4.355l-2.9-14.516c1.283-6.968,2.032-8.634,7.258-11.613,8.981-8.438,20.444-2.411,27.581,2.9C651.17,323.508,634.479,314.131,626.664,296.3Zm-87.1,1.452h7.258v5.807l-2.9,1.452c-1.828-4.388.026-1.742-2.9-4.355l1.452,4.355C537.756,301.619,538.492,303.5,539.565,297.752Zm-315.008,4.355L192.62,397.916c-5.065,25.324,6.943,44.275,11.613,60.969l7.258,58.066c13.222,37,39.851,79.222,62.421,108.874-27.4-13.342-53.747-73.6-60.969-105.97h-1.452l-2.9,15.968c.7-21.942-4.21-27.368-11.613-39.195l10.162,5.807c-1.016-22.782-10.238-25.294-17.42-39.195L201.33,470.5v-4.355c-4.57-14.923-6.451-18.124-17.42-26.13h10.162v-1.452l-8.71-26.13h1.452l2.9,10.162h1.452c-2.323-28.934,5.9-46.652,11.613-68.228l2.9-36.291v2.9l4.355,10.162h1.452v-2.9Zm158.23,0,1.452,4.355h-1.452Zm217.747,0,8.71,1.452,1.452,4.355c-4.59,9.339-9.137,13.2-18.871,17.42l-4.355-2.9-1.452-10.162,2.9,1.452c1.937,5.7.542,4.687,5.807,7.258a28.961,28.961,0,0,0-7.258-15.968Zm-262.749,1.452,1.452,18.871,5.807-1.452v-1.452c-7.52-2.423-1.481-10.016-5.807-13.065Zm62.421,0,7.258,1.452Zm180,0,1.452,2.9ZM397.3,305.01Zm201.779,0-2.9,1.452,1.452,11.613c5.926-3.824,8.395-5.87,7.258-13.065Zm-68.228,1.452,7.258,1.452v5.807h-1.452c-2.323-3.919-.492-2-4.355-4.355l-1.452,4.355,2.9,5.807-4.355-1.452-1.452-7.258ZM394.4,307.913l1.452,2.9Zm188.714,0,2.9,4.355Zm-307.75,1.452c12.092-.277,18.009,2.057,21.775,10.161-13.894-10.016-20.178-5.282-33.388,1.452l5.807-8.71Zm297.588,0h4.355v1.452l-4.355,1.452Zm-325.169,2.9c3.774,1.6-.29,5.021-2.9,8.71h-1.452v-1.452Zm307.75,0h4.355v4.355l-5.807-1.452Zm-277.265,2.9c8.984.643,12.74,2.225,15.968,8.71-8.761-5.688-11.673-4.709-23.226-2.9Zm-30.485,2.9Zm259.845,0,1.452,2.9Zm-210.489,1.452,1.452,2.9Zm-56.614,1.452Zm37.743,0Zm-40.646,1.452c.1,2.613,1.656,1.786-2.9,4.355Zm45,0,4.355,2.9Zm278.717,0,5.807,2.9-1.452,2.9-5.807-1.452Zm8.71,0,10.161,1.452c-1.124,6.415-.871,5.391-4.355,8.71l1.452-7.258c-6.968,2.948-4.574.338-4.355,7.258l-4.355-2.9v-1.452Zm-52.259,2.9h4.355l-1.452,4.355-1.452,2.9-2.9-2.9Zm-246.78,4.355c3.753,4.607,6.122,5.573,13.065,7.258v-1.452l-5.807-5.807Zm140.81,0Zm-85.647,1.452,5.807,2.9C327.5,333.608,323.2,335.422,326.172,331.14Zm79.841,0h5.807v1.452Zm130.648,0h5.807v4.355c-7.1-1.186.123.91-7.258,1.452Zm-37.743,1.452c11.9.06,14.63,2.758,18.871,10.162l-8.71-4.355,5.807,5.807c-7.35-.775-8.691-2.758-11.613,0l-5.807,20.323h-1.452l5.807-24.678-5.807-1.452Zm2.9,2.9,2.9,1.452Zm-156.778,1.452,8.71,1.452v4.355L352.3,344.2l-7.258-1.452Zm2.9,1.452Zm39.195,0c2.021,2.792.145.871,2.9,2.9Zm107.422,0c3.015,9.4-2.723,23.971-7.258,30.485h-1.452l-7.258-4.355a31.054,31.054,0,0,1,2.9-17.42c4.6,1.6,5.969,2.153,10.161,1.452ZM369.722,339.85c2.681,5.933,1.807,5.484,10.162,5.807,1.8-2.575,2.282-2.392,4.355-4.355V339.85c-6.289,1.588-8.015,3.048-11.613,0ZM639.728,341.3c9.414.4,12.756,2.143,15.968,8.71-4.744-3.339-9.038-7.086-15.968-4.355l-5.807,2.9v10.162l4.355,1.452c5.772,2.539,11.349.623,15.968-1.452l-2.9,4.355H636.825l-7.258-4.355,1.452-13.065ZM523.6,342.753c4.364,1.864,3.259.912,5.807,4.355-4.445.035-2.032-1.4-5.807,1.452,1.73,1.1,1.784-.581,1.452,1.452l-4.355,1.452-1.452-4.355Zm60.969,0,5.807,2.9-4.355,4.355Zm-7.258,1.452c5.056,2.656,3.9,1.225,5.807,7.258-3.995-1.711-3.194-2.41-7.258-1.452,3.17,2.189,6.294.212,4.355,4.355-6.415-1.124-5.391-.871-8.71-4.355l2.9-4.355Zm-71.131,1.452c2.654,7.524-2.024,16.135-7.258,20.323Zm10.162,0-2.9,13.065,1.452,4.355c6.2-2.577,7.218-2.748,13.065,0,1.151,7.578-.094,11.5,4.355,14.516,6.419,4.592,5.737,3.811,11.613,0-4.027,11.874-6.315,20.886-2.9,34.84h1.452l2.9-2.9c-9.841-9.572-1.995-18.305,1.452-31.936l2.9,2.9-1.452,2.9c22.286.392,30.93-8.518,40.646-20.323l8.71,1.452v4.355c-2-.183-38.033,14.768-52.259,18.871-.678,13.313.547,20.439,7.258,26.13,3.6-12.522,22.4-27.3,40.646-18.871-23.994-.968-50.15,16.489-37.743,40.646h7.258c2.056-7.071,2.709-7.164,10.162-8.71l1.452,2.9c-3.7,2.714-2.114-.187-1.452,4.355-9.854,1.306-11.178,4.028-20.323,2.9l-1.452-4.355c-2.725-5.081-1.867-14.319,0-15.968v-1.452c-4.882,4.012-2.821.435-2.9,8.71l-5.807-4.355c-4.287-10.823-6.033-21.113-4.355-36.291L526.5,379.044c-3.557,10.016-18.376,20.435-33.388,13.065l10.161-1.452c-7.787-.2-9.291-.726-13.065-4.355,15.067,2.355,25.6-.692,33.388-5.807l2.9-14.517-1.452-2.9c-8.245,1.817-6.313,3.854-14.516,5.807v-1.452l2.9-5.807-2.9,1.452-4.355,10.161-1.452-2.9c2.9-7.675,2.741-11.394,4.355-20.323l2.9-1.452c1.1,1.73-.581,1.784,1.452,1.452Zm42.1,0,2.9,2.9-1.452,1.452-2.9-1.452Zm-319.363,1.452,1.452,2.9Zm53.711,0-2.9,7.258h1.452l2.9-1.452Zm242.425,0,11.613,1.452v1.452l-2.9,5.807c-.581-5.516,1.632-1.806-1.452-5.807l-11.613,4.355,1.452,2.9,11.613,2.9c-7.694.122-11.644-.762-15.968-2.9v-1.452C530.093,349.14,530.664,350.7,535.21,347.108ZM342.14,348.56c10.578-.343,13.606.525,15.968,8.71-6.576,4.065-11.083,6.049-20.323,4.355v-5.807l2.9-2.9c.18,5.767-1.306,3,1.452,7.258l10.162-2.9,1.452-2.9-1.452-2.9C347.385,351.5,338.846,353.29,342.14,348.56Zm31.936,2.9,1.452,2.9Zm110.325,0,4.355,7.258C487.22,353.421,487.575,354.452,484.4,351.463Zm-108.874,2.9,1.452,4.355h-1.452Zm107.422,0v11.613h4.355l1.452-2.9Zm171.295,1.452,1.452,2.9Zm-349.847,2.9-1.452,2.9,5.807-2.9Zm55.163,0h5.807l1.452,2.9-2.9,4.355h-1.452c-5.3-1.324-2.969.055-5.807-2.9h5.807C358.438,359.737,358.936,363.918,359.56,358.721Zm17.42,0,1.452,4.355H376.98Zm197.424,0c7.355,2.6,4.891,3.271,11.613,2.9-1.8,2.575-2.282,2.392-4.355,4.355l-5.807-4.355,2.9,5.807c-9.317-2.58-10.39-.819-14.517-2.9l4.355-2.9Zm84.2,0,1.452,2.9Zm-336.783,1.452h5.807v2.9Zm274.362,1.452c10,1.95,15.8,7.033,18.871,15.968l-2.9-1.452C608.438,368.364,602.457,366.577,596.179,361.624Zm-76.937,2.9c4.814,5.052,1.545,8.12-1.452,13.065-13.6,1.5-20.59,2.654-31.936-1.452l-2.9-5.807c13.007,5.817,19.734,7.347,34.84,2.9Zm14.517,0,5.807,2.9v4.355h-5.807l-2.9-2.9Zm26.13,1.452,2.9,2.9C560,366.862,561.92,368.737,559.888,365.979Zm-24.678,1.452Zm65.324,0,10.161,8.71-1.452,5.807-2.9-1.452-8.71-11.613Zm-315.008,1.452v8.71h1.452v-8.71Zm104.519,0c17.039-.472,30.978,4.655,36.291,15.968-10.035-7.676-35.973-22.236-46.453-4.355v10.161c6.57,15.309,25.259,20.567,43.549,15.968l-1.452,2.9c-26.6,4.338-37.888-5.2-47.9-21.775l2.9-11.613Zm159.681,0h2.9l-7.258,7.258Zm7.258,0h2.9C557.354,370.3,559.568,370.206,556.984,368.883Zm-2.9,1.452c4.04,3.14,0,2.294,4.355,4.355l-2.9,2.9c-3.435.4-1.81-.322-5.807,1.452v-5.807C553.63,372.529,550.928,374.512,554.081,370.334ZM346.5,371.786l2.9,5.807-2.9,2.9h-1.452l-2.9-5.807C347.366,374.344,342.69,375.38,346.5,371.786Zm277.265,1.452h5.807v1.452Zm-177.1,1.452c8.33.38,10.583,1.427,14.516,5.807-6.322-1.825-8.917-2.652-15.968-1.452L439.4,386.3l1.452,4.355c7.708,5.094,14.069,5.005,21.775,0-2.937,6.466-10.492,9.871-18.871,5.807l-5.807-2.9L436.5,383.4Zm172.746,0h4.355v1.452l-8.71,2.9Zm30.485,0Zm-185.811,1.452,2.9,4.355Zm191.618,0Zm-288.878,1.452c2.076,5.644,1.009,5.394-2.9,8.71Zm291.781,0Zm-46.453,1.452c.1,2.613,1.656,1.786-2.9,4.355Zm85.647,0,1.452,2.9ZM466.982,380.5l1.452,2.9Zm181.456,1.452,8.71,1.452,17.42,21.775-1.452,5.807c-6.955,1.587-9.333,2.709-13.065,7.258v1.452l8.71,5.807-1.452,4.355c-3.646,10.924-12.356,16.706-26.13,17.42l-4.355-11.613-7.258,5.807c-2.988,6.135-4.322,6.773-13.065,7.258-6.731-8.531-12.87-14.589-10.162-29.033l18.872-5.807-4.355-5.807c8.449,4.081,12.557,15.9,8.71,27.581l7.258-4.355c5.2,3.941,4.335,6.75,7.258,13.065,18.427-6.146,17.614-11.381,11.613-27.581,6.418-4.8,9.2-9.9,10.161-20.323L655.7,384.851c-10.693,1.224-12.178,6.5-18.871,5.807h2.9Zm47.9,0q-.726,14.516-1.452,29.033c10.073,71.4-12.258,135.951-47.9,171.295l42.1-87.1C699.005,462.774,690.681,417.368,696.343,381.947Zm-72.582,2.9Zm5.807,0,7.258,5.807ZM289.881,386.3c22.049-1.408,46.435,10.468,34.84,29.033-7.162,1.806-26.548,2.071-30.485,7.258l-2.9,11.613h-1.452v-4.355c9.836-26.68,30.049-1.912,36.291-26.13-17.42-13.481-32.27-17.609-52.259-4.355l-5.807,23.226,2.9-23.226Zm132.1,2.9,5.807,2.9v5.807h-1.452c-2.8-4.394-.29-2.35-5.807-4.355l-1.452,7.258,7.258-1.452-1.452,4.355h-7.258l-1.452-1.452c.312-6.551,1.028-7.826,2.9-11.613Zm195.973,1.452h2.9l-1.452,13.065h-1.452Zm-267.1,1.452c4.946,2.032,4.461,1.952,7.258,5.807l-4.355,7.258-7.258-1.452v-7.258l4.355,5.807,2.9-1.452v-1.452Zm-47.9,2.9,7.258,2.9v7.258l-5.807,2.9,2.9-8.71h-5.807V410.98c-2.792-2.021-.871-.145-2.9-2.9l-1.452-7.258Zm26.13,0,2.9,4.355Zm46.453,0,1.452,2.9Zm-91.454,2.9h4.355l5.807,5.807-1.452,4.355c-2.368-3.4-2.54-4.706-5.807-7.258h-1.452c1.6,6.373,2.694,6.113,5.807,10.161l-8.71-4.355-1.452-4.355Zm90,0c3.726,11.115-7.56,20.714-13.065,27.581,20.015-.932,30.713,6.831,30.485,26.13h-1.452c-2.992-35.329-38.045-16.961-59.518-17.42l-24.678-4.355c-7.344,2.379-10.108,11.258-18.871,10.161h2.9c10.15-11.272,26.372-19.269,42.1-24.678l-4.355,5.807-8.71,5.807C347.25,430.55,367.328,419.96,374.077,397.916Zm201.779,0c9.918-.486,16.945.033,21.775,4.355-15.73-2.564-26.6.531-36.291,7.258l4.355-7.258Zm-243.877,1.452,1.452,2.9Zm130.648,1.452-4.355,4.355c13.759,3.149,15.117,13.2,26.13,14.516v-1.452l-2.9-2.9C478.1,407.984,471.176,402.966,462.627,400.819Zm-145.165,1.452,5.807,1.452v5.807l-8.71,4.355-4.355-2.9,1.452-4.355Zm351.3,0-1.452,7.258h1.452l2.9-1.452v-1.452ZM616.5,403.722l4.355,4.355C616.938,405.754,618.858,407.585,616.5,403.722Zm-193.069,1.452Zm-107.422,1.452-2.9,4.355c4.364-1.864,3.259-.912,5.807-4.355Zm23.226,0,2.9,4.355v-4.355l4.355,2.9v2.9l-1.452,1.452-8.71-1.452V410.98Zm-155.326,2.9,1.452,2.9Zm94.357,0,10.162,7.258c-4.911-1.563-5.387-2.879-10.162-1.452l8.71,2.9-1.452,2.9-4.355-1.452c-5.28-1.649-3.972-1.645-7.258-4.355v-1.452Zm72.582,0,5.807,1.452v1.452l-1.452,2.9c-5.277-.935-4.394-.581-7.258-2.9H352.3Zm-17.42,1.452,1.452,2.9Zm91.454,0c1.2,3.375-.386,5.371-2.9,8.71Zm17.42,1.452h4.355l4.355,7.258-4.355,5.807V415.335l-2.9,1.452,1.452,8.71c-2.792-2.021-.871-.145-2.9-2.9Zm103.067,0v2.9C546.789,412.8,546.7,415.016,545.371,412.432Zm-378.88,1.452,5.807,87.1c15.823,62.26,76.647,168.741,139.358,181.456v1.452c-65.853-9.6-129.58-121.445-143.713-185.811C162.313,472.439,166.2,441.481,166.491,413.884Zm290.33,0,7.258,1.452L462.627,425.5l-5.807-1.452c4.394-2.8,2.35-.29,4.355-5.807l-1.452-1.452-4.355,2.9V425.5l-2.9-1.452,1.452-4.355Zm107.422,2.9c5.85.581,5.679.475,8.71,2.9-10.474.941-11.613,3.446-11.613,14.517l-2.9-1.452C558.808,423.273,560.624,422.112,564.243,416.787Zm59.518,0-11.613,2.9-4.355,4.355c5.435,6.49,7.038,17.791,10.161,20.323l4.355,1.452,1.452-4.355a21.12,21.12,0,0,0,0-24.678Zm-191.618,1.452,7.258,5.807-1.452,4.355c-2.593-3.1-1.963-3.532-5.807-5.807l4.355,8.71c-3.712-2.369-3.519-1.788-5.807-5.807C430.01,421.541,430.4,422.237,432.143,418.239Zm-11.613,1.452,1.452,2.9Zm156.778,0c5.214,13-6,25.681-8.71,37.743h-1.452v-8.71C571.3,438.748,576.081,432.433,577.307,419.69Zm-307.75,2.9,1.452,2.9Zm10.162,0,7.258,4.355h-7.258l2.9,2.9h4.355l-2.9,1.452c-4.579,1.256-4.612.435-8.71-1.452V428.4Zm251.135,0c-.319,2.13.6,1.452-1.452,4.355Zm-60.969,1.452Zm-4.355,2.9h2.9l-10.162,7.258C460.75,429.424,461.705,429.965,465.53,426.949ZM587.469,428.4c2.376,4.872-4.67,23.334-8.71,27.581a68.926,68.926,0,0,1,8.71-27.581Zm20.323,0,5.807,11.613C611.966,434.642,611.8,431.485,607.792,428.4Zm-15.968,1.452c5.018,11.154-6.306,23.371-4.355,33.388,2.137,1.118,7.319,1.6,5.807,5.807l-8.71,4.355c-8.912-2.957-13.7-4.908-17.42-13.065,5.38,3.919,5.693,6.776,11.613,2.9l-8.71-4.355,15.968,4.355ZM427.788,431.3l2.9,2.9C427.9,432.186,429.82,434.062,427.788,431.3Zm11.613,0c8.692.183,9.735,1.357,14.517,4.355l2.9,11.613h-1.452l-1.452-2.9c-2.837-5.049-2.178-7.1-7.258-10.161H430.691Zm-171.295,1.452,5.807,5.807-5.807-2.9Zm209.038,0-7.258,8.71c2.227,9.019,3.56,6.078,1.452,14.516h1.452l1.452-2.9C477.569,448.478,480.192,439.453,477.144,432.755Zm-191.618,2.9Zm139.358,0c8.348,2.758,20.3,7.186,23.226,15.968h-1.452l-4.355-4.355A32.227,32.227,0,0,1,424.884,435.659Zm150.972,2.9h2.9l-2.9,14.516-2.9-1.452v-1.452Zm-312.1,1.452,5.807,2.9Zm5.807,2.9c6.374,3.324,13.528,15.043,11.613,21.775L275.364,476.3c10.289,4.645,17.873,26.959,10.162,36.291l-10.162,4.355c-3.889,7.093,4.123,7.621-5.807,14.516v-2.9L262.3,514.047c13.117,5.788,18.5-2.323,23.226-13.065-2.223-20.9-14.424-22.278-30.485-29.033l-13.065,8.71c2.964,2.613,1.026.022,2.9,4.355h-1.452l-4.355-1.452c3.629-7.893,6.94-9.5,13.065-14.516-4.435-6.27-8.453-9.489-10.162-18.871l5.807-4.355h5.807v1.452l-8.71,2.9v5.807c9.8,9.42,23.688,27.233,34.84,7.258Zm-8.71,1.452Zm95.809,0h8.71v1.452c-17.195,3.018-19.758,12.867-29.033,23.226C338.79,454.565,346.479,450.891,356.657,444.368Zm11.613,1.452c10.358.121,11.657,1.611,15.968,7.258l-1.452,7.258c-7.193-.581-7.328-1.7-11.613,1.452,10.7.859,11.937-1.97,20.323-5.807-3.661,5.911-4.936,8.293-13.065,10.161,6.294,8.195,11.468,12.484,13.065,26.13l-11.613,8.71H368.27c7.466-.788,7.418-.176,10.162-5.807H376.98l-7.258,2.9c4.61-6.326,9.973-10.934,18.871-13.065-7.383-13.547-22.232-17.083-24.678-34.84h1.452l2.9,8.71c5.349-2.375,5.349-2.032,13.065-1.452C379.243,449.211,370.861,448.056,368.27,445.82Zm-110.325,1.452c-2.246,9.7-8.116,4.21,0,15.968l13.065,2.9-4.355-17.42h1.452c2.162,8.48,6.029,11.652,4.355,20.323H265.2c-8.987-2.758-13.249-7.036-17.42-14.517Zm162.585,0,8.71,1.452,8.71,7.258L436.5,466.143c-4.5,11.487-15.263,16.839-30.485,17.42l-1.452-4.355-1.452-8.71h1.452c.618,7.459,1.352,7.549,4.355,11.613l8.71-2.9-8.71-2.9-2.9-13.065,2.9,1.452,2.9,10.161c8.488-1.861,11.758-5.77,15.968-11.613v-4.355c-8.751.663-13.936,2.214-18.871-1.452,11.692-1.06,17.937-3.381,23.226,4.355l-13.065,15.968c7.4-2.5,11.468-6.265,14.517-13.065v-5.807l-2.9-7.258c-11.745-2.266-21.239,1.809-29.033,7.258l2.9-5.807Zm23.226,10.162,1.452,4.355h-1.452Zm36.291,0,1.452,2.9Zm-79.841,1.452,1.452,4.355h-1.452Zm58.066,0,14.516,7.258C462.454,465.949,457.7,463.53,458.272,458.885Zm-53.711,1.452,1.452,2.9Zm-47.9,2.9,15.968,26.13-4.355-2.9C364.089,477.727,358.544,475.2,356.657,463.24Zm4.355,0a47.8,47.8,0,0,1,20.323,23.226L368.27,474.853Zm94.357,0,1.452,2.9Zm-155.327,1.452h8.71v1.452h-2.9c-3.693,5.1-6.815,4.1-11.613,7.258v-4.355Zm287.427,0,2.9,2.9Zm-275.813,1.452,1.452,4.355h-4.355l-1.452-2.9Zm272.91,0c2.021,2.792.145.871,2.9,2.9Zm-240.974,1.452c11.651,5.336,16.883,21.484,23.226,31.936C356.088,493.849,350.278,477.27,343.592,467.595Zm-7.258,2.9c1.8,2.244,2.008,13.027,7.258,18.871-7.705-2.259-7.617-4.682-11.613-10.162v-1.452Zm-47.9,1.452,2.9,2.9C288.541,472.832,290.462,474.708,288.429,471.95ZM519.241,473.4c-.319,2.13.6,1.452-1.452,4.355Zm-270.007,1.452v7.258l-2.9-2.9Zm36.291,0h2.9l-2.9,2.9Zm328.073,0ZM281.171,476.3l2.9,2.9-1.452,1.452Zm335.331,0c58.625,5.651,10.188,102.53-30.485,63.873C638.672,556.29,659.835,501.65,616.5,476.3Zm-100.164,1.452c.4,6.335,2.08,21.92,0,33.388l-4.355,1.452c-30.307,14.916-30.122-13.384-26.13-29.033h-8.71c3.048-2.446,2.867-2.249,8.71-2.9l2.9,4.355c-2.931,6.792-5.081,9.405-5.807,18.871H484.4l10.162-1.452-2.9,2.9c-2.934,5.415-2.613-1.553-4.355,4.355h17.42l2.9-4.355c3.037,4.908,2.234-.435,4.355,4.355l2.9-2.9v-1.452l-8.71-2.9,8.71,1.452c-1.878-9.636-5.288-14.342-4.355-23.226Zm-159.681,1.452c5.94,2.751,7.711,5.458,10.162,11.613C361.126,487.466,359.705,485.168,356.657,479.208Zm164.036,0c8.147,1.6,6.223,2.243,10.162,7.258l-1.452,5.807-7.258,1.452-2.9-4.355,7.258,1.452v-4.355l-1.452-4.355h-4.355c-2.021,2.792-.145.871-2.9,2.9ZM255.041,480.66c13.355-.229,17.462,4.391,17.42,17.42l-2.9-1.452C268.542,483.916,257.525,482.67,255.041,480.66Zm344.041,0c1.6,14.3-15.868,38.647-24.678,49.356Zm-164.036,1.452c-21.741,11.095-36.6,19.256-39.195,49.356,4.959,2.346,4.857,2.363,7.258,7.258-8.71-6.2-14.135-7.644-26.13-4.355l-5.807,15.968c3.969,5.661,4.735,8.573,11.613,11.613,9.653,2.645,14.162-1.334,20.323-5.807.791,43.56,72.993,33.574,82.744-2.9h1.452l-4.355,17.42h17.42c24.173-8.457,32.19-25.167,23.226-50.808l-2.9-1.452c-22.628,7.839-49.1,8.843-52.259-18.871l-11.613,1.452L442.3,482.111Zm168.391,0,1.452,2.9Zm-351.3,1.452,4.355,5.807,5.807-4.355v1.452l-2.9,5.807,8.71-1.452-1.452,2.9c-11.758,3-14.024,4.474-26.13,8.71l1.452,2.9,8.71,7.258c2.3-8.115,4.248-11.2,13.065-13.065l4.355,4.355-2.9,2.9v1.452c-3-2.85-1.5-.544-2.9-5.807l-14.517,14.516-8.71-4.355-1.452-5.807,7.258,5.807c-3.638-7.907-6.432-6.021-4.355-13.065L253.59,489.37l-1.452-2.9-5.807,1.452Zm220.651,0h4.355v1.452l-8.71,1.452Zm139.358,0,5.807,2.9-2.9,7.258h-5.807l1.452-2.9,4.355-2.9-8.71,4.355Zm-264.2,1.452V518.4l1.452-2.9C354.167,507.13,352.623,492.051,347.947,485.015Zm254.039,0,1.452,2.9Zm20.323,0c34.514,15.154,2.452,63.449-39.195,49.356l-1.452-10.161c11.641-13.181,25.534-16.126,18.871-36.291l2.9,1.452,4.355,15.968c-10.645,6.541-20.214,10.016-23.226,24.678l5.807,4.355C628.854,536.661,641.794,509.928,622.309,485.015ZM385.69,486.466l2.9,2.9-1.452-2.9Zm50.808,2.9H442.3l-5.807,2.9Zm-53.711,1.452c3.658,2.362.241,1.43,4.355,0Zm137.907,4.355Zm94.357,0h10.162l1.452,2.9-1.452,4.355H612.147v-1.452Zm0,2.9-1.452,1.452,2.9,2.9,5.807-2.9v-1.452Zm-200.328,1.452,5.807,2.9c-2.118,5.94-1.926,3.882-5.807,7.258l-4.355-2.9c1.742-3.237,1.588-3.609,4.355-5.807v4.355l2.9-1.452Zm84.2,1.452,7.258,1.452Zm-206.134,2.9Zm204.683,0h5.807v4.355h-5.807Zm-207.586,1.452Zm203.231,0c2.792,2.021.871.145,2.9,2.9Zm-223.554,1.452,7.258,1.452-2.9,2.9Zm181.456,0,15.968,1.452c1.071,5.38.678,5.647-1.452,10.162l-15.968,1.452-1.452-2.9,2.9-5.807c2.146,7.064-.457,4.43,7.258,5.807l4.355-1.452c-.7-5.2,2.177-1.974-2.9-5.807Zm103.067,0,8.71,1.452v8.71c-2.552,6.7-4.117,11.178-10.161,14.516l-4.355,1.452-8.71-11.613,11.613,8.71c4.677-5.86,7.566-10.49,8.71-20.323l-18.871,7.258Zm60.969,0,11.613,4.355c-2.138,7.075-1.7,6.553-10.161,7.258l-2.9-2.9ZM265.2,508.241l7.258,2.9-2.9,2.9Zm349.847,1.452c1.954,4.936.881,3,4.355,5.807l2.9-2.9-2.9-1.452Zm-297.588,1.452c-16.357,5.145-29.8.684-24.678,23.226h1.452c12.271-3.84,23.192-.231,34.84-5.807l2.9-15.968-1.452-1.452ZM604.889,512.6l8.71,7.258c-1.357,6.29-1.974,6.823-5.807,10.162l-5.807-1.452-1.452-8.71,4.355-4.355-1.452,10.162h5.807V518.4Zm-193.069,1.452h10.162c-1.362,8.3-1.292,8.013-10.162,8.71Zm111.777,0-1.452,2.9c11.406,3.565,8.263,15.615,13.065,23.226-3.774,1.173-4.985,5.092-5.807,11.613l1.452,1.452,5.807-4.355v-1.452c.607-17.208-2.574-24.025-8.71-33.388ZM413.271,515.5l-1.452,1.452,2.9,2.9,4.355-1.452Zm20.323,1.452,4.355,2.9v1.452h-4.355Zm34.84,0c5.85.581,5.679.475,8.71,2.9l-2.9,4.355c-5.277-.935-4.394-.581-7.258-2.9,1.849-.893,2.935-.032,1.452-1.452Zm126.293,0c2.117,3.525,2.4,3.474,1.452,7.258-1.649,5.28-1.645,3.972-4.355,7.258h-1.452c-1.887-3.082-1.786-2.1-2.9-7.258l4.355-5.807ZM266.655,518.4l1.452,5.807,4.355-4.355V518.4Zm137.907,0c3.919,2.211,2.719.038,4.355,5.807l-5.807-2.9Zm188.714,1.452-2.9,7.258h1.452C593.94,523.588,594.222,523.639,593.276,519.854Zm-320.815,2.9-1.452,2.9C273.611,523.72,273.215,525.915,272.461,522.757Zm268.555,5.807,1.452,4.355h-1.452Zm-85.647,1.452,5.807,2.9-2.9,4.355h-4.355l-1.452-5.807,4.355,2.9Zm-126.294,1.452c-3.671,6.808-7.071,4.2-11.613,5.807l5.807,4.355,8.71-4.355Zm52.259,4.355,13.065,1.452c4.544,2.342,3.417,1.325,5.807,5.807l-4.355-2.9c2.323,7.146,2.032,6.921,5.807,8.71-4.967,12.236-16.809,11.011-26.13,4.355l-1.452-10.162Zm34.84,0v7.258c6.733-1.976,4.245-2.565,8.71-5.807l1.452,2.9-1.452,4.355H413.271V543.08Zm60.969,0,2.9,2.9-5.807,4.355Zm-178.553,2.9c9.485-.054,12.963,1.24,17.42,5.807l-1.452,2.9-20.323-1.452v7.258l2.9,4.355c8.64,1.772,12.814.659,18.871-2.9l-1.452,4.355c-5.371,1.682-10.029,3.943-15.968,1.452-5.3-2.49-5.911-3.908-8.71-8.71C291.662,543.869,293.946,543.194,298.591,538.726Zm94.357,0c-10.909.227-10.887,2.032-15.968,7.258v1.452c3.459,4.221,2.886,4.891,8.71,7.258h10.162Zm10.161,0,1.452,2.9Zm180,0Zm-155.327,1.452,7.258,1.452v1.452l-1.452,2.9C427.5,543.753,430.041,546.251,427.788,540.177Zm-127.745,1.452-2.9,1.452h11.613Zm-23.226,2.9,1.452,2.9Zm-1.452,2.9,1.452,2.9Zm185.811,2.9,7.258,2.9c-1.216,7.087-1.6,6.678-5.807,10.161l-5.807-2.9v-4.355l2.9-1.452c2.587,5.2-.771,1.719,4.355,4.355l1.452-2.9v-1.452Zm26.13,0,1.452,2.9ZM316.011,551.79l1.452,2.9Zm87.1,1.452,1.452,2.9Zm31.936,0h5.807l-5.807,2.9Zm91.454,0c-2.073,7.694-2.2,4.889-5.807,11.613,4.589.145,2.269-.163,1.452,4.355l5.807-4.355,2.9-10.161Zm-206.134,1.452,1.452,2.9Zm368.719,0v7.258h-1.452Zm-272.91,1.452h4.355c-.617,3.774,1.417.793-1.452,4.355Zm121.938,0,17.42,2.9c5.516,3.98,8.3,6.532,10.162,14.516l-17.42-14.516c-6.74,1.475-8.544,1.648-14.516,5.807Zm63.873,2.9c11.159-.743,20.07,3.06,17.42,11.613v7.258c-6.463,3.207-10.376,4.518-18.871,2.9l-7.258-8.71C595.057,564.192,597.34,563.517,601.985,559.049ZM571.5,560.5l5.807,8.71v13.065c-2.456,6.264-7.9,11.214-14.516,8.71,6.653-2.243,8.817-4.088,11.613-10.162C576.582,572.694,573.842,567.549,571.5,560.5Zm31.936,1.452-5.807,4.355c.312,6.551,1.028,7.826,2.9,11.613l11.613,1.452,2.9-4.355,2.9-10.162L613.6,563.4Zm82.744,0v7.258h-1.452ZM451.014,563.4Zm-1.452,1.452c5.661,1.845.581,1.531,7.258,0v4.355c-2.88,2.323-2.016,1.887-7.258,2.9Zm66.776,0c-4.308,6.3-5.824,7.5-14.517,7.258v4.355h8.71l10.161-5.807V569.21Zm-90,2.9c4.394,2.8,2.35.29,4.355,5.807l-1.452,1.452h-5.807l-1.452-4.355C427.015,569.47,423.817,572.346,426.336,567.759Zm34.84,0h5.807v1.452l-1.452,4.355h-5.807c.409-4.085-.772-1.073,2.9-2.9Zm-166.94,1.452Zm389.042,0c3.766,11.352-14.3,31.038-26.13,33.388C666.934,591.8,675.956,582.9,683.278,569.21Zm-391.945,1.452Zm256.942,0h4.355v1.452l-15.968,11.613Zm-68.228,2.9-2.9,4.355h2.9c7.769,3.75,15.437,1.016,18.871-4.355-4.777,1.463-18.146,1.716-15.968,0Zm143.713,1.452,1.452,2.9ZM394.4,577.92h4.355l-4.355,1.452Zm227.909,0c-.319,2.13.6,1.452-1.452,4.355Zm-66.776,2.9Zm-145.165,1.452,1.452,2.9Zm235.167,0,1.452,2.9ZM394.4,583.727l10.162,2.9v4.355l-1.452,1.452h-7.258l-2.9-4.355,8.71,1.452C398.8,587.047,392.43,587.211,394.4,583.727Zm100.164,0Zm-2.9,1.452Zm152.423,0,1.452,2.9Zm-287.427,7.258,8.71,1.452c-.894,5.184-1.873,5.661-8.71,8.71l-4.355-1.452C353.566,594.614,353.642,596.147,356.657,592.437Zm34.84,1.452,10.162,5.807v4.355l-4.355,2.9c-5.336-3.1-6.36-3.87-8.71-10.162l10.162,5.807c-3.15-3.867-2.916-4.065-8.71-5.807Zm-33.388,1.452-1.452,2.9c5.277-.935,4.394-.581,7.258-2.9Zm148.068,0c2.792,2.021.871.145,2.9,2.9l-2.9-1.452Zm129.2,0Zm-119.035,1.452c-1.376,2.979,1.343,3.1-5.807,4.355l2.9-1.452Zm114.68,0Zm-4.355,1.452h4.355v1.452c-82.249,21.688-63.517,88.51-180,88.551l-53.711-2.9c51.42.672,108.981,3.324,137.907-18.871l47.9-47.9Zm-256.942,1.452c3.774,1.307-1.788,3.426-2.9,10.162,8.4-2.295,6.48-3.754,10.162-10.162l-1.452,8.71-2.9,4.355h-7.258l-2.9-5.807,1.452-4.355Zm13.065,2.9c5.84,1.656,5.555,1.995,8.71,5.807l-1.452,7.258h-7.258l-1.452-4.355C380.435,607.422,381.149,606.757,382.786,602.6Zm1.452,1.452-1.452,7.258,2.9,1.452,2.9-2.9Zm188.714,5.807Zm-2.9,1.452h2.9l-4.355,2.9Zm-7.258,5.807c.1,2.613,1.656,1.786-2.9,4.355Zm-116.132,1.452,8.71,2.9,1.452,7.258-5.807,4.355-4.355-4.355c6.663-1.032,3.629,2.568,5.807-4.355l-5.807-2.9-1.452,2.9Zm-43.55,1.452c3.121,3.157,1.354,2.549,2.9,7.258C401.3,623.885,402.037,625.771,403.109,620.018Zm92.906,0-1.452,4.355,1.452,1.452,2.9-5.807Zm14.517,0c-8.475,6.48-20.432,8.18-27.581,15.968l7.258,17.42,7.258,1.452,7.258-10.162-2.9-5.807c5.975,2.889,5.416,3.115,10.162-1.452-7,.048-7.482-1.109-11.613-7.258,7.608,3.178,4.9,4.975,11.613,2.9l2.9-7.258v-5.807Zm135,0c-1.633,10.54-18.429,22.319-26.13,31.936-23.28,29.071-110.768,85.229-168.391,75.486-24.871-4.21-42.7-13.283-62.421-20.323L346.5,695.5c51.679,5.831,113.262,51.718,155.326,7.258-1.27,9.208-3.687,9.726-8.71,14.516,21.194-3.269,20.2-11.382,30.485-24.678l-2.9,15.968c40.732-15.1,84.261-31.434,104.519-66.776l-13.065,4.355V644.7c8.213-6.881,15.443-3.869,21.775-11.613-4.791-.055-11.927,1.716-8.71-2.9C636.12,629.037,640.518,626.807,645.535,620.018Zm-371.622,2.9Zm2.9,1.452c38.064,7.505,96.111,32.894,116.132,60.969-22.9-10.938-37.813-28.568-69.679-37.743l4.355,14.517-2.9-1.452C317.069,638.474,293.655,637.076,276.816,624.373Zm133.552,1.452c13.252-.062,16.282,4.326,17.42,15.968l-2.9,1.452C423.37,630.921,419,630.637,410.368,625.825Zm-4.355,2.9c8.617,3.181,9.447.234,8.71,8.71l7.258-1.452-7.258,5.807c-7.877-1.145-10.614,2.372-20.323,5.807l2.9-4.355,11.613-8.71-2.9-2.9-4.355,1.452Zm42.1,5.807,5.807,1.452v1.452Zm52.259,1.452,1.452,2.9Zm30.485,5.807h2.9l-8.71,7.258Zm-105.97,8.71,5.807,1.452v2.9C425.135,652.94,427.671,654.858,424.884,650.5Zm-4.355,2.9,7.258,4.355-2.9,1.452h-1.452Zm-78.389,7.258,8.71,1.452c5.46,2.758,6,4.87,8.71,10.162Zm-30.485,23.226,10.162,1.452v1.452Zm10.162,2.9h5.807v1.452Zm15.968,5.807Zm4.355,1.452Z" transform="translate(-164.913 -153.915)" fill="#25170f" fill-rule="evenodd"/>
</svg>
